<svg width="184" height="36" viewBox="0 0 184 36" fill="none" xmlns="http://www.w3.org/2000/svg">
<path d="M47.7069 17.6091C47.7069 22.9312 43.6885 26.587 37.438 26.587H30.1025V8.62761H37.4419C43.6885 8.62761 47.7069 12.2621 47.7069 17.6091ZM37.1319 22.7997C40.7318 22.7997 42.8515 20.9061 42.8515 17.6055C42.8515 14.305 40.7318 12.3616 37.1319 12.3616H34.8727V22.7997H37.1319Z" fill="#FF2056"/>
<path d="M57.3058 26.793C52.7293 26.793 49.4355 23.9792 49.4355 19.4494C49.4355 14.9196 52.6712 12.1058 57.3058 12.1058C61.8551 12.1058 65.0636 14.8698 65.0636 19.2185C65.0636 19.627 65.0365 20.064 64.9784 20.4975H54.1786C54.3452 22.3662 55.6007 23.2367 57.1353 23.2367C58.476 23.2367 59.2278 22.622 59.6192 21.8546H64.6955C63.9437 24.6436 61.1847 26.793 57.3058 26.793ZM54.2057 18.0673H60.1772C60.1772 16.5077 58.8364 15.6124 57.2476 15.6124C55.686 15.6124 54.4847 16.4828 54.2057 18.0673Z" fill="#FF2056"/>
<path d="M85.1785 17.6089C85.1785 22.931 81.1601 26.5868 74.9097 26.5868H67.5703V8.62743H74.9097C81.1601 8.62743 85.1785 12.2619 85.1785 17.6089ZM74.6035 22.7995C78.2034 22.7995 80.3231 20.9059 80.3231 17.6053C80.3231 14.3048 78.2034 12.3614 74.6035 12.3614H72.3444V22.7995H74.6035Z" fill="#FF2056"/>
<path d="M94.7735 26.793C90.1971 26.793 86.9033 23.9792 86.9033 19.4494C86.9033 14.9196 90.139 12.1058 94.7735 12.1058C99.3229 12.1058 102.531 14.8698 102.531 19.2185C102.531 19.627 102.504 20.064 102.446 20.4975H91.6464C91.813 22.3662 93.0685 23.2367 94.603 23.2367C95.9438 23.2367 96.6956 22.622 97.0869 21.8546H102.163C101.415 24.6436 98.6525 26.793 94.7735 26.793ZM91.6774 18.0673H97.6488C97.6488 16.5077 96.3081 15.6124 94.7193 15.6124C93.1576 15.6124 91.9564 16.4828 91.6774 18.0673Z" fill="#FF2056"/>
<path d="M105.043 7.65762H109.813V26.5869H105.043V7.65762Z" fill="#FF2056"/>
<path d="M112.823 8.47483C112.823 7.14609 113.966 6.09446 115.668 6.09446C117.342 6.09446 118.485 7.14254 118.485 8.47483C118.485 9.77871 117.342 10.8268 115.668 10.8268C113.97 10.8303 112.823 9.77871 112.823 8.47483ZM113.273 12.3119H118.043V26.587H113.273V12.3119Z" fill="#FF2056"/>
<path d="M125.131 12.3119L128.506 22.4942L131.881 12.3119H136.957L131.432 26.587H125.545L120.02 12.3119H125.131Z" fill="#FF2056"/>
<path d="M145.889 26.793C141.312 26.793 138.019 23.9792 138.019 19.4494C138.019 14.9196 141.254 12.1058 145.889 12.1058C150.438 12.1058 153.647 14.8698 153.647 19.2185C153.647 19.627 153.62 20.064 153.561 20.4975H142.762C142.928 22.3662 144.184 23.2367 145.718 23.2367C147.059 23.2367 147.811 22.622 148.202 21.8546H153.279C152.527 24.6436 149.764 26.793 145.889 26.793ZM142.789 18.0673H148.76C148.76 16.5077 147.419 15.6124 145.831 15.6124C144.269 15.6124 143.068 16.4828 142.789 18.0673Z" fill="#FF2056"/>
<path d="M160.924 26.587H156.154V12.3119H160.924V14.6922C162.013 13.1823 163.715 12.1591 165.807 12.1591V16.7884H164.497C162.238 16.7884 160.924 17.5061 160.924 19.961V26.587Z" fill="#FF2056"/>
<path d="M178.839 12.3119H184L174.235 33.3657H169.101L172.674 26.1003L166.338 12.3119H171.666L175.266 21.24L178.839 12.3119Z" fill="#FF2056"/>
<path fill-rule="evenodd" clip-rule="evenodd" d="M23.6956 1.31707H18.6095L15.9529 6.18846H23.6956V1.31707ZM23.6951 8.18883H5.41789L4.80337 13.0602H18.0988V19.0431H23.6951V8.18883ZM10.6327 16.1684H4.43555L3.13281 27.0263H23.6955V22.1549H10.6327V16.1684Z" fill="#FF2056"/>
</svg>
